<svg width="16" height="11" viewBox="0 0 16 11" fill="none" xmlns="http://www.w3.org/2000/svg">
<path d="M4.316 10.104C3.562 10.104 2.89033 9.95233 2.301 9.649C1.71167 9.337 1.248 8.908 0.91 8.362C0.580667 7.816 0.416 7.19633 0.416 6.503C0.416 5.801 0.580667 5.18133 0.91 4.644C1.248 4.098 1.71167 3.67333 2.301 3.37C2.89033 3.058 3.562 2.902 4.316 2.902C5.05267 2.902 5.694 3.058 6.24 3.37C6.786 3.67333 7.189 4.111 7.449 4.683L5.876 5.528C5.694 5.19867 5.46433 4.956 5.187 4.8C4.91833 4.644 4.62367 4.566 4.303 4.566C3.95633 4.566 3.64433 4.644 3.367 4.8C3.08967 4.956 2.86867 5.177 2.704 5.463C2.548 5.749 2.47 6.09567 2.47 6.503C2.47 6.91033 2.548 7.257 2.704 7.543C2.86867 7.829 3.08967 8.05 3.367 8.206C3.64433 8.362 3.95633 8.44 4.303 8.44C4.62367 8.44 4.91833 8.36633 5.187 8.219C5.46433 8.063 5.694 7.816 5.876 7.478L7.449 8.336C7.189 8.89933 6.786 9.337 6.24 9.649C5.694 9.95233 5.05267 10.104 4.316 10.104ZM10.7097 4.995H15.0777V6.685H10.7097V4.995ZM10.8657 10H8.75966V0.899999H15.6367V2.59H10.8657V10Z" fill="white"/>
</svg>
